<?xml version="1.0" encoding="utf-8"?>
<!-- Generator: Adobe Illustrator 19.0.0, SVG Export Plug-In . SVG Version: 6.00 Build 0)  -->
<svg version="1.1" id="Layer_1" xmlns="http://www.w3.org/2000/svg" xmlns:xlink="http://www.w3.org/1999/xlink" x="0px" y="0px"
	 viewBox="0 0 30 30" style="enable-background:new 0 0 30 30;" xml:space="preserve">
<style type="text/css">
	.st0{clip-path:url(#SVGID_2_);}
	.st1{clip-path:url(#SVGID_4_);}
	.st2{clip-path:url(#SVGID_6_);}
</style>
<g>
	<path d="M-50,9l-1.5,0c-1.7,0-2.9,1.1-2.9,2.9v1.3H-56c-0.1,0-0.2,0.1-0.2,0.2v2c0,0.1,0.1,0.2,0.2,0.2h1.6v4.9
		c0,0.1,0.1,0.2,0.2,0.2h2c0.1,0,0.2-0.1,0.2-0.2v-4.9h1.8c0.1,0,0.2-0.1,0.2-0.2l0-2c0-0.1,0-0.1-0.1-0.2c0,0-0.1-0.1-0.2-0.1h-1.8
		v-1.1c0-0.5,0.1-0.8,0.8-0.8l1,0c0.1,0,0.2-0.1,0.2-0.2V9.2C-49.8,9.1-49.9,9-50,9L-50,9z M-50,9"/>
</g>
<g>
	<g>
		<defs>
			<rect id="SVGID_1_" x="8.3" y="8.3" width="13.4" height="13.5"/>
		</defs>
		<clipPath id="SVGID_2_">
			<use xlink:href="#SVGID_1_"  style="overflow:visible;"/>
		</clipPath>
		<path class="st0" d="M21.6,15.3c-0.3-0.6-1-0.9-1.6-0.6l-0.6,0.3L18,11.7l0.6-0.3c0.6-0.3,0.9-1,0.6-1.6c-0.3-0.6-1-0.9-1.6-0.6
			l-0.6,0.3L16.8,9c-0.3-0.6-1-0.9-1.6-0.6c-0.6,0.3-0.9,1-0.6,1.6l0.3,0.6L11.7,12l-0.3-0.6c-0.3-0.6-1-0.9-1.6-0.6
			c-0.6,0.3-0.9,1-0.6,1.6l0.3,0.6L9,13.2c-0.6,0.3-0.9,1-0.6,1.6c0.3,0.6,1,0.9,1.6,0.6l0.6-0.3l1.4,3.2l-0.6,0.3
			c-0.6,0.3-0.9,1-0.6,1.6c0.3,0.6,1,0.9,1.6,0.6l0.6-0.3l0.3,0.6c0.3,0.6,1,0.9,1.6,0.6c0.6-0.3,0.9-1,0.6-1.6l-0.3-0.6l3.2-1.4
			l0.3,0.6c0.3,0.6,1,0.9,1.6,0.6c0.6-0.3,0.9-1,0.6-1.6l-0.3-0.6l0.6-0.3C21.6,16.6,21.9,15.9,21.6,15.3L21.6,15.3z M14.1,17.3
			l-1.4-3.2l3.2-1.4l1.4,3.2L14.1,17.3z M14.1,17.3"/>
	</g>
</g>
<g>
	<path d="M87.9,10.7c-0.5,0.2-1.1,0.4-1.6,0.4c0.6-0.4,1-0.9,1.2-1.6c-0.5,0.3-1.2,0.6-1.8,0.7c-0.5-0.6-1.3-0.9-2.1-0.9
		c-1.6,0-2.8,1.3-2.8,2.8c0,0.2,0,0.4,0.1,0.6c-2.4-0.1-4.4-1.2-5.8-3c-0.2,0.4-0.4,0.9-0.4,1.4c0,1,0.5,1.9,1.3,2.4
		c-0.5,0-0.9-0.1-1.3-0.4c0,0,0,0,0,0c0,1.4,1,2.5,2.3,2.8c-0.2,0.1-0.5,0.1-0.7,0.1c-0.2,0-0.4,0-0.5-0.1c0.4,1.1,1.4,1.9,2.7,2
		c-1,0.8-2.2,1.2-3.5,1.2c-0.2,0-0.5,0-0.7,0c1.3,0.8,2.7,1.3,4.3,1.3c5.2,0,8.1-4.3,8.1-8.1c0-0.1,0-0.2,0-0.4
		C87.1,11.8,87.5,11.3,87.9,10.7L87.9,10.7z M87.9,10.7"/>
</g>
<g>
	<path d="M-44.4,52.8c0-0.9-0.7-1.7-1.7-1.7c-0.5,0-1,0.2-1.3,0.6c-0.9-0.4-1.9-0.6-2.9-0.7l0.9-2.9l2,0.4c0.2,0.6,0.7,1.1,1.4,1.1
		c0.8,0,1.4-0.6,1.4-1.4s-0.6-1.4-1.4-1.4c-0.6,0-1,0.3-1.3,0.8l-2.3-0.5c-0.2-0.1-0.5,0.1-0.6,0.3l-1.1,3.6c-1.2,0-2.4,0.3-3.4,0.7
		c-0.3-0.4-0.8-0.6-1.3-0.6c-0.9,0-1.7,0.7-1.7,1.7c0,0.4,0.2,0.9,0.5,1.2c-0.2,0.4-0.3,0.8-0.3,1.2c0,1.1,0.7,2.2,1.9,3
		c1.2,0.8,2.8,1.2,4.5,1.2c1.7,0,3.3-0.4,4.5-1.2c1.2-0.8,1.9-1.9,1.9-3c0-0.4-0.1-0.8-0.3-1.2C-44.5,53.6-44.4,53.2-44.4,52.8
		L-44.4,52.8z M-56.9,53.3c-0.1-0.2-0.2-0.4-0.2-0.6c0-0.6,0.5-1.1,1.1-1.1c0.3,0,0.5,0.1,0.7,0.2C-56,52.3-56.5,52.8-56.9,53.3
		L-56.9,53.3z M-54.4,54.3c0-0.7,0.5-1.2,1.2-1.2c0.7,0,1.2,0.5,1.2,1.2c0,0.7-0.5,1.2-1.2,1.2C-53.9,55.5-54.4,55-54.4,54.3
		L-54.4,54.3z M-48.6,57c-0.5,0.5-1.4,0.8-2.4,0.8s-2-0.3-2.4-0.8c-0.1-0.1-0.1-0.2-0.1-0.3c0-0.1,0.1-0.2,0.2-0.3
		c0.1-0.1,0.2-0.1,0.3-0.1c0.1,0,0.3,0.1,0.4,0.2c0.3,0.3,1,0.5,1.7,0.5c0.7,0,1.5-0.2,1.7-0.5c0.1-0.1,0.2-0.2,0.4-0.2
		c0.1,0,0.2,0,0.3,0.1c0.1,0.1,0.1,0.2,0.2,0.3C-48.4,56.8-48.5,56.9-48.6,57L-48.6,57z M-48.8,55.5c-0.7,0-1.2-0.5-1.2-1.2
		c0-0.7,0.5-1.2,1.2-1.2c0.7,0,1.2,0.5,1.2,1.2C-47.6,55-48.1,55.5-48.8,55.5L-48.8,55.5z M-45.1,53.3c-0.4-0.5-0.9-1-1.6-1.4
		c0.2-0.2,0.4-0.2,0.7-0.2c0.6,0,1.1,0.5,1.1,1.1C-44.9,53-45,53.2-45.1,53.3L-45.1,53.3z M-45.1,53.3"/>
</g>
<g>
	<g>
		<defs>
			<rect id="SVGID_3_" x="8.8" y="47.3" width="12.4" height="10.8"/>
		</defs>
		<clipPath id="SVGID_4_">
			<use xlink:href="#SVGID_3_"  style="overflow:visible;"/>
		</clipPath>
		<path class="st1" d="M9,52.4l2.9,1.1l1.1,3.6c0.1,0.2,0.3,0.3,0.5,0.2l1.6-1.3c0.2-0.1,0.4-0.1,0.6,0l2.9,2.1
			c0.2,0.1,0.5,0,0.5-0.2l2.1-10.1c0.1-0.3-0.2-0.5-0.5-0.4L9,51.8C8.7,51.9,8.7,52.3,9,52.4L9,52.4z M12.8,52.9l5.6-3.4
			c0.1-0.1,0.2,0.1,0.1,0.2l-4.6,4.3c-0.2,0.2-0.3,0.4-0.3,0.6l-0.2,1.2c0,0.2-0.2,0.2-0.3,0l-0.6-2.1
			C12.5,53.3,12.6,53.1,12.8,52.9L12.8,52.9z M12.8,52.9"/>
	</g>
</g>
<g>
	<g>
		<defs>
			<rect id="SVGID_5_" x="78" y="46.3" width="8.9" height="12.4"/>
		</defs>
		<clipPath id="SVGID_6_">
			<use xlink:href="#SVGID_5_"  style="overflow:visible;"/>
		</clipPath>
		<path class="st2" d="M86.5,52.7c-0.3-0.4-0.7-0.6-1.3-0.8c0.7-0.4,1.1-1,1-1.9c0-0.3-0.1-0.6-0.3-0.8c-0.2-0.2-0.4-0.4-0.6-0.6
			c-0.3-0.1-0.5-0.3-0.8-0.3c-0.3-0.1-0.6-0.1-1-0.2v-1.9h-1.1v1.8c-0.2,0-0.5,0-0.9,0v-1.8h-1.1v1.9c-0.2,0-0.4,0-0.7,0l-1.6,0v1.2
			h0.8c0.4,0,0.6,0.2,0.7,0.5V52c0,0,0.1,0,0.1,0h-0.1v3c0,0.3-0.2,0.4-0.4,0.4h-0.8L78,56.7h1.5c0.1,0,0.2,0,0.4,0
			c0.2,0,0.3,0,0.4,0v1.9h1.1v-1.9c0.2,0,0.5,0,0.9,0v1.9h1.1v-1.9c0.4,0,0.8-0.1,1.1-0.1c0.3-0.1,0.6-0.1,0.9-0.3
			c0.3-0.1,0.5-0.3,0.7-0.4c0.2-0.2,0.4-0.4,0.5-0.7c0.1-0.3,0.2-0.6,0.2-0.9C86.9,53.6,86.8,53.1,86.5,52.7L86.5,52.7z M81.4,49.4
			c0,0,0.1,0,0.3,0c0.2,0,0.3,0,0.4,0c0.1,0,0.2,0,0.4,0c0.2,0,0.3,0,0.5,0.1c0.1,0,0.3,0.1,0.4,0.1c0.1,0.1,0.3,0.1,0.4,0.2
			c0.1,0.1,0.2,0.2,0.2,0.3c0.1,0.1,0.1,0.3,0.1,0.4c0,0.1,0,0.3-0.1,0.4c0,0.1-0.1,0.2-0.2,0.3c-0.1,0.1-0.2,0.1-0.3,0.2
			c-0.1,0.1-0.2,0.1-0.4,0.1c-0.1,0-0.3,0.1-0.4,0.1c-0.1,0-0.2,0-0.4,0c-0.2,0-0.3,0-0.4,0c-0.1,0-0.2,0-0.3,0c-0.1,0-0.2,0-0.3,0
			L81.4,49.4L81.4,49.4z M84.5,54.5c0,0.1-0.1,0.2-0.2,0.3c-0.1,0.1-0.2,0.2-0.3,0.2c-0.1,0.1-0.2,0.1-0.4,0.2
			c-0.1,0-0.3,0.1-0.4,0.1c-0.2,0-0.3,0.1-0.4,0.1c-0.1,0-0.3,0-0.4,0c-0.2,0-0.3,0-0.4,0c-0.1,0-0.2,0-0.4,0c-0.1,0-0.2,0-0.3,0
			v-2.5c0,0,0.2,0,0.4,0c0.2,0,0.4,0,0.5,0c0.1,0,0.3,0,0.5,0c0.2,0,0.4,0,0.5,0.1c0.1,0,0.3,0.1,0.5,0.1c0.2,0.1,0.3,0.1,0.4,0.2
			c0.1,0.1,0.2,0.2,0.3,0.3c0.1,0.1,0.1,0.3,0.1,0.5C84.6,54.2,84.6,54.4,84.5,54.5L84.5,54.5z M84.5,54.5"/>
	</g>
</g>
</svg>
